# xmcd
#
# Track frame offsets:
#	150
#	10790
#	30999
#	42375
#	53995
#	71986
#	89084
#	104000
#	114598
#	131375
#	145926
#	157358
#
# Disc length: 2313 seconds
#
# Revision: 1
# Processed by: cddbd v1.5.2PL0 Copyright (c) Steve Scherf et al.
# Submitted via: audiograbber 1.83.01
#
DISCID=b009070c
DTITLE=Mila Curti - Country
DYEAR=1900
DGENRE=Country
TTITLE0=Cotton Fields
TTITLE1=The Midnight Special
TTITLE2=Jambalaya
TTITLE3=Have You Ever Seen The Rain
TTITLE4=You've Got a Friend
TTITLE5=Standing Outside the Fire
TTITLE6=Who Says You Can't Have It All
TTITLE7=Bad Moon Rising
TTITLE8=Listen To The Music
TTITLE9=Proud Mary
TTITLE10=Looking Out My Back Door
TTITLE11=From This Moment On
EXTD=
EXTT0=
EXTT1=
EXTT2=
EXTT3=
EXTT4=
EXTT5=
EXTT6=
EXTT7=
EXTT8=
EXTT9=
EXTT10=
EXTT11=
PLAYORDER=
